# xmcd
#
# Track frame offsets:
#	150
#	1735
#	19141
#	19986
#	40805
#	42500
#	53646
#	68529
#	68991
#	88581
#	89538
#	102666
#	118216
#	119072
#	136654
#	160880
#	170638
#	171803
#	190978
#	193980
#	221399
#	221762
#	232098
#	244487
#
# Disc length: 3280 seconds
#
# Revision: 0
# Processed by: cddbd v1.5.1PL0 Copyright (c) Steve Scherf et al.
# Submitted via: dBpowerAMP V4.0
#
DISCID=660cce18
DTITLE=Rosie Flores - Single Rose
DYEAR=1900
DGENRE=Rockabilly
TTITLE0=intro
TTITLE1=Palamino Days
TTITLE2=intro
TTITLE3=Mornin' Light
TTITLE4=intro
TTITLE5=Aromatherapy Cowgirl
TTITLE6=Single Rose
TTITLE7=intro
TTITLE8=It's Over
TTITLE9=intro
TTITLE10=Daddy's Lullaby
TTITLE11=Heartbreak Train
TTITLE12=intro
TTITLE13=West Texas Plains
TTITLE14=Boxcars
TTITLE15='59 Tweedle Dee
TTITLE16=intro
TTITLE17=Midnight To Moonlight
TTITLE18=intro
TTITLE19=Bandera Highway
TTITLE20=intro
TTITLE21=Little Bit More
TTITLE22=Country Boy (Girl)
TTITLE23=outro
EXTD=
EXTT0=
EXTT1=
EXTT2=
EXTT3=
EXTT4=
EXTT5=
EXTT6=
EXTT7=
EXTT8=
EXTT9=
EXTT10=
EXTT11=
EXTT12=
EXTT13=
EXTT14=
EXTT15=
EXTT16=
EXTT17=
EXTT18=
EXTT19=
EXTT20=
EXTT21=
EXTT22=
EXTT23=
PLAYORDER=
